HIERARCHY
ROOT hip
{
	OFFSET 0.000000 0.000000 0.000000 
	CHANNELS 6 Xposition Yposition Zposition Zrotation Xrotation Yrotation
	JOINT abdomen
	{
		OFFSET 0.000000 3.402643 0.000000 
		CHANNELS 3 Zrotation Xrotation Yrotation
		JOINT chest
		{
			OFFSET 0.000000 8.438565 -0.680529 
			CHANNELS 3 Zrotation Xrotation Yrotation
			JOINT neck
			{
				OFFSET 0.000000 10.207942 -0.272212 
				CHANNELS 3 Zrotation Xrotation Yrotation
				JOINT head
				{
					OFFSET 0.000000 3.130431 0.000000 
					CHANNELS 3 Zrotation Xrotation Yrotation
					End Site
					{
						OFFSET 0.000000 3.130435 0.000000 
					}
				}
			}
			JOINT lCollar
			{
				OFFSET 3.470700 6.669187 -0.816635 
				CHANNELS 3 Zrotation Xrotation Yrotation
				JOINT lShldr
				{
					OFFSET 3.198488 0.000000 0.000000 
					CHANNELS 3 Zrotation Xrotation Yrotation
					JOINT lForeArm
					{
						OFFSET 10.139888 0.000000 0.000000 
						CHANNELS 3 Zrotation Xrotation Yrotation
						JOINT lHand
						{
							OFFSET 8.370511 0.000000 0.000000 
							CHANNELS 3 Zrotation Xrotation Yrotation
							End Site
							{
								OFFSET 4.083176 0.000000 0.000000 
							}
						}
					}
				}
			}
			JOINT rCollar
			{
				OFFSET -3.470700 6.669187 -0.816635 
				CHANNELS 3 Zrotation Xrotation Yrotation
				JOINT rShldr
				{
					OFFSET -3.198488 0.000000 0.000000 
					CHANNELS 3 Zrotation Xrotation Yrotation
					JOINT rForeArm
					{
						OFFSET -10.139888 0.000000 0.000000 
						CHANNELS 3 Zrotation Xrotation Yrotation
						JOINT rHand
						{
							OFFSET -8.370511 0.000000 0.000000 
							CHANNELS 3 Zrotation Xrotation Yrotation
							End Site
							{
								OFFSET -4.083176 0.000000 0.000000 
							}
						}
					}
				}
			}
		}
	}
	JOINT lThigh
	{
		OFFSET 5.308129 -1.633274 1.361059 
		CHANNELS 3 Zrotation Xrotation Yrotation
		JOINT lShin
		{
			OFFSET -2.041588 -20.007561 0.000000 
			CHANNELS 3 Zrotation Xrotation Yrotation
			JOINT lFoot
			{
				OFFSET 0.000000 -19.190928 -1.224953 
				CHANNELS 3 Zrotation Xrotation Yrotation
				End Site
				{
					OFFSET 0.000000 -2.449906 4.627600 
				}
			}
		}
	}
	JOINT rThigh
	{
		OFFSET -5.308129 -1.633274 1.361059 
		CHANNELS 3 Zrotation Xrotation Yrotation
		JOINT rShin
		{
			OFFSET 2.041588 -20.007561 0.000000 
			CHANNELS 3 Zrotation Xrotation Yrotation
			JOINT rFoot
			{
				OFFSET 0.000000 -19.190928 -1.224953 
				CHANNELS 3 Zrotation Xrotation Yrotation
				End Site
				{
					OFFSET 0.000000 -2.449906 4.627600 
				}
			}
		}
	}
}
MOTION
Frames: 15
Frame Time: 0.016667
-4.478920 42.942806 -4.620050 -7.138670 13.916100 10.028900 -2.811160 14.634600 1.704570 1.349920 -11.968400 2.152110 -12.296100 -15.670800 11.828400 -1.565850 1.402010 6.546150 -1.998780 -0.069785 1.998780 -83.128700 0.964017 -3.851540 1.517290 -1.872710 -57.370098 -0.052043 38.023998 0.011131 1.998780 -0.069785 -1.998780 76.044502 -3.848980 13.503000 1.134620 0.441002 45.313499 0.022464 54.707001 0.042999 3.066310 -38.404007 -8.368040 2.275120 38.812500 1.677630 -0.212866 2.127920 -8.765950 6.417799 -25.658600 10.277500 -2.032440 28.380501 -1.633850 1.526330 -15.030000 5.379970 
-4.949920 42.167606 -5.175420 -5.927740 10.810600 15.634600 -1.879420 14.804000 0.643528 1.987990 -11.444200 0.619985 -13.709100 -16.369200 13.112800 -2.512050 1.329340 7.295730 -1.998780 -0.069785 1.998780 -81.647499 8.728020 -13.068000 1.569100 -2.001870 -62.630199 -0.042013 42.174000 -0.003827 1.998780 -0.069785 -1.998780 76.537903 -6.260530 8.214320 0.972555 0.321886 39.585602 0.030784 52.792999 0.032373 -0.551790 -38.375607 -11.544900 2.249490 44.364799 1.807020 -1.740070 -2.801650 -15.110400 4.949450 -26.434200 6.703270 -2.237840 35.597401 -1.644640 0.576550 -17.614500 2.413030 
-5.262650 41.405804 -5.698580 -9.179690 7.900400 18.788099 -2.757090 14.987100 0.815801 3.390420 -11.425400 0.334993 -14.153700 -16.755800 14.483800 -3.019720 1.375410 8.014630 -1.998780 -0.069785 1.998780 -77.283699 14.663400 -22.395599 1.608350 -2.133220 -67.812599 -0.041045 46.021999 -0.005536 1.998780 -0.069785 -1.998780 77.525200 -9.904110 3.439320 0.789694 0.214461 33.545300 0.021589 57.852001 0.044456 2.975260 -40.012108 -10.682000 2.121740 52.242699 2.064400 -3.114760 -7.083960 -16.846001 8.871598 -26.774401 5.542730 -2.153120 39.194698 -1.824710 -0.387804 -18.538099 -0.431845 
-5.376120 41.044704 -6.086520 -8.955080 7.744140 19.022900 -2.590640 14.657800 0.650277 3.499820 -11.826100 0.148041 -14.532700 -16.950001 16.013100 -3.420650 1.509730 8.824270 -1.998780 -0.069785 1.998780 -72.874496 17.588400 -29.760300 1.638830 -2.289550 -73.834702 -0.037965 47.056999 -0.009890 1.998780 -0.069785 -1.998780 78.159599 -14.159300 -0.564531 0.620108 0.136270 28.226801 -0.025923 65.000000 0.100902 4.231875 -40.478806 -6.935370 1.719200 58.804298 2.589340 -3.922760 -11.480300 -14.512500 8.754498 -27.977501 5.048310 -2.096620 41.258202 -1.937450 -0.942683 -19.250500 -1.847210 
-5.425570 41.083206 -6.364220 -8.847660 7.656250 18.368200 -1.554040 14.426400 0.089709 3.773290 -11.972400 -0.236549 -15.698900 -17.488501 17.710600 -4.114820 1.680890 9.780630 -1.998780 -0.069785 1.998780 -69.051903 17.297199 -36.446999 1.652240 -2.435820 -79.388802 -0.039061 46.695000 -0.008351 1.998780 -0.069785 -1.998780 78.309998 -18.387501 -3.787820 0.524853 0.100380 25.328400 -0.105999 69.911903 0.189041 6.515840 -38.974506 -2.477230 1.297580 63.184601 3.083940 -3.672040 -13.299800 -11.782100 8.978298 -28.222000 5.807110 -2.091470 41.326401 -1.925240 -0.554078 -18.848200 -0.984513 
-5.322160 41.470104 -6.630480 -8.691410 8.183590 18.114700 -0.925003 14.870500 -0.542760 3.695130 -11.861300 -1.144200 -16.678801 -17.848801 19.158001 -4.643990 1.940640 10.579000 -1.998780 -0.069785 1.998780 -64.929298 15.315300 -42.874001 1.653190 -2.537810 -83.244797 -0.041830 45.748001 -0.004413 1.998780 -0.069785 -1.998780 78.275398 -19.618200 -6.893480 0.524853 0.100380 25.328400 -0.104084 69.784897 0.186983 7.291140 -36.508507 -0.392223 1.109860 65.420303 3.284960 -3.683460 -11.996000 -12.926200 8.211899 -28.112400 5.146120 -2.114460 39.393799 -1.874800 -0.267465 -17.382200 -0.080330 
-5.131040 42.062603 -6.889430 -8.388670 9.423820 17.538000 -0.642803 14.705800 -1.091470 3.253240 -12.213000 -2.115380 -17.778500 -17.244499 20.148100 -5.127410 2.532500 11.130000 -1.998780 -0.069785 1.998780 -61.055000 12.139800 -47.721802 1.651510 -2.581160 -84.885101 -0.035254 44.556999 -0.013342 1.998780 -0.069785 -1.998780 78.399200 -17.351999 -10.679100 0.589519 0.124142 27.290001 -0.028244 65.264000 0.103547 7.253049 -33.552406 1.060950 1.136100 65.165199 3.256140 -2.563420 -8.974780 -10.757200 7.151799 -28.232599 4.652200 -2.128460 36.567402 -1.776450 -0.241399 -15.204800 0.238747 
-4.939740 42.625603 -7.166340 -7.294920 10.820300 16.357300 0.030120 14.648400 -1.641500 2.811500 -12.485800 -2.812660 -18.370701 -16.948900 20.719500 -5.373890 2.784330 11.459500 -1.998780 -0.069785 1.998780 -58.181099 8.365540 -51.786800 1.651550 -2.580390 -84.855797 -0.036907 44.000000 -0.011050 1.998780 -0.069785 -1.998780 78.666901 -13.994300 -14.048100 0.664984 0.155121 29.612600 0.016327 58.856998 0.050993 6.145400 -29.875799 2.306030 1.513310 62.874100 2.835150 -1.595630 -5.907150 -8.128160 5.712540 -28.448099 5.191680 -2.115340 33.939800 -1.740100 -0.176137 -12.737000 0.817429 
-4.675640 43.054306 -7.457300 -6.142580 12.373100 15.213900 0.613015 14.793800 -2.188990 2.351080 -12.744300 -3.591180 -18.786699 -16.793400 21.082600 -5.463230 2.939810 11.680600 -1.998780 -0.069785 1.998780 -56.264702 4.412810 -55.153198 1.652960 -2.546330 -83.567001 -0.037842 43.678001 -0.009744 1.998780 -0.069785 -1.998780 78.934700 -11.296800 -16.656300 0.733263 0.186307 31.749800 0.020502 55.126999 0.045463 4.368582 -26.316099 2.359060 1.903750 58.728699 2.392020 -0.837168 -6.250970 -3.148860 4.107881 -29.256399 5.238370 -2.107220 32.310799 -1.687050 -0.303753 -10.820800 0.636328 
-4.385090 43.246906 -7.808380 -5.253910 14.511700 13.426900 0.949123 15.534500 -2.463430 1.972820 -12.882100 -3.971470 -19.615101 -17.280300 21.027300 -5.805490 2.946530 11.713900 -1.998780 -0.069785 1.998780 -55.221199 0.417651 -58.170502 1.653610 -2.492100 -81.516899 -0.037504 43.794998 -0.010218 1.998780 -0.069785 -1.998780 79.304802 -9.640440 -18.255199 0.792129 0.215727 33.623402 0.026107 53.896999 0.038382 2.759250 -23.725399 2.379950 2.250060 52.833698 1.928650 0.003885 -5.568850 1.693330 3.010410 -31.504900 6.099520 -2.084350 31.871201 -1.701390 -0.261272 -9.244570 1.094460 
-4.128480 43.189205 -8.194020 -4.238280 15.224600 11.610700 1.292420 15.532100 -2.730890 1.596360 -12.962100 -4.291560 -19.310600 -17.924000 20.987400 -5.686060 2.713220 11.686100 -1.998780 -0.069785 1.998780 -54.869999 -2.978830 -60.066200 1.652070 -2.431950 -79.242401 -0.036101 44.273998 -0.012171 1.998780 -0.069785 -1.998780 79.632896 -8.421930 -19.815500 0.861335 0.253479 35.867802 0.029041 53.213001 0.034624 1.497400 -20.118000 2.018660 2.529350 45.612099 1.552450 -0.259445 -6.952880 0.013953 2.506391 -33.411400 7.393620 -2.096810 33.646702 -1.744760 -0.252253 -8.758210 0.919912 
-3.754270 43.013805 -8.623750 -2.744140 15.839800 9.492080 1.180680 15.445100 -2.828290 0.900444 -13.139300 -4.604940 -19.179100 -18.506800 20.537800 -5.712560 2.400470 11.473100 -1.998780 -0.069785 1.998780 -54.593399 -5.295780 -60.738602 1.647970 -2.369850 -76.889900 -0.036071 44.283001 -0.012212 1.998780 -0.069785 -1.998780 79.908798 -7.500060 -21.033400 0.946977 0.305263 38.717201 0.038123 50.898998 0.022726 -0.353920 -16.868799 1.525090 2.620040 38.667702 1.327320 -1.123170 -9.278200 -3.512440 1.387170 -36.551102 8.011650 -2.121630 37.872799 -1.822960 0.068482 -8.635870 2.290770 
-3.476970 42.737705 -9.130960 -1.474610 16.308599 7.402230 1.490530 15.130100 -3.093990 0.355525 -13.432000 -4.962450 -18.164499 -18.516100 20.197100 -5.231930 2.180050 11.215300 -1.998780 -0.069785 1.998780 -54.917500 -6.911540 -59.527199 1.642590 -2.318230 -74.927902 -0.034840 44.693001 -0.013913 1.998780 -0.069785 -1.998780 80.036400 -6.300530 -21.560699 1.054380 0.378910 42.425201 0.045867 48.643002 0.012198 -1.755210 -15.124498 2.264430 2.591870 33.966000 1.244350 -1.938600 -11.139500 -5.986240 1.021490 -40.901001 8.396690 -2.067990 43.730701 -2.022230 0.318653 -5.107160 4.582240 
-3.263260 42.498005 -9.489930 -0.117187 16.064501 6.132800 1.769850 14.893000 -3.485650 -0.284017 -13.557800 -5.615020 -17.232401 -18.846500 19.503099 -4.828200 1.773180 10.816300 -1.998780 -0.069785 1.998780 -55.475899 -7.239220 -56.762600 1.636550 -2.273960 -73.239304 -0.043502 45.152000 -0.002003 1.998780 -0.069785 -1.998780 80.196297 -5.487090 -21.411900 1.164400 0.465760 46.416100 0.046585 48.417999 0.011200 -3.221060 -13.497797 3.886280 2.519610 30.878099 1.244840 -1.909840 -13.000000 -5.306790 0.039710 -44.321602 6.878180 -1.906540 49.472500 -2.290610 0.208355 -1.823800 5.602280 
-3.163660 42.378304 -9.644770 1.484380 15.478600 4.834100 2.511100 14.707800 -3.952250 -0.761644 -13.649800 -6.057740 -17.564501 -18.814501 18.502199 -4.846400 1.607020 10.358500 -1.998780 -0.069785 1.998780 -56.085899 -6.447690 -52.612099 1.627560 -2.221000 -71.209099 -0.043178 45.270000 -0.002474 1.998780 -0.069785 -1.998780 80.219299 -4.756520 -20.565001 1.283250 0.574969 51.011700 0.043266 49.433998 0.015780 -4.767989 -11.685099 5.624730 2.461280 28.396799 1.225370 -2.120780 -13.406800 -5.948360 -0.931470 -46.045300 5.268750 -1.771270 53.141899 -2.472380 0.192175 -1.682390 3.114670 
